REM DIRINDEX 1\2,1\3,1\4,1\5\6,1\5\7,1\8
REM DIRNAME folder01,folder02,folder03,folder04,folder05,folder06,folder07,folder08
TITLE ""
FILE "048 【048】Unit3 (0541 rhetoric_0552 portray).mp3" MP3
  TRACK 01 AUDIO
    TITLE "0:"
    INDEX 01 00:00:00
  TRACK 02 AUDIO
    TITLE "2:cjc115_1852"
    INDEX 01 00:00:07
  TRACK 03 AUDIO
    TITLE "0:"
    INDEX 01 00:01:24
  TRACK 04 AUDIO
    TITLE "3:cjc115_1853"
    INDEX 01 00:01:30
  TRACK 05 AUDIO
    TITLE "0:"
    INDEX 01 00:03:53
  TRACK 06 AUDIO
    TITLE "4:cjc115_1854"
    INDEX 01 00:03:68
  TRACK 07 AUDIO
    TITLE "0:"
    INDEX 01 00:07:60
  TRACK 08 AUDIO
    TITLE "2:cjc115_1855"
    INDEX 01 00:08:66
  TRACK 09 AUDIO
    TITLE "0:"
    INDEX 01 00:10:08
  TRACK 10 AUDIO
    TITLE "3:cjc115_1856"
    INDEX 01 00:10:18
  TRACK 11 AUDIO
    TITLE "0:"
    INDEX 01 00:11:44
  TRACK 12 AUDIO
    TITLE "4:cjc115_1857"
    INDEX 01 00:11:48
  TRACK 13 AUDIO
    TITLE "0:"
    INDEX 01 00:16:00
  TRACK 14 AUDIO
    TITLE "2:cjc115_1858"
    INDEX 01 00:17:10
  TRACK 15 AUDIO
    TITLE "0:"
    INDEX 01 00:18:21
  TRACK 16 AUDIO
    TITLE "3:cjc115_1859"
    INDEX 01 00:18:29
  TRACK 17 AUDIO
    TITLE "0:"
    INDEX 01 00:20:47
  TRACK 18 AUDIO
    TITLE "4:cjc115_1860"
    INDEX 01 00:20:57
  TRACK 19 AUDIO
    TITLE "0:"
    INDEX 01 00:24:43
  TRACK 20 AUDIO
    TITLE "2:cjc115_1861"
    INDEX 01 00:25:52
  TRACK 21 AUDIO
    TITLE "0:"
    INDEX 01 00:26:56
  TRACK 22 AUDIO
    TITLE "3:cjc115_1862"
    INDEX 01 00:26:66
  TRACK 23 AUDIO
    TITLE "0:"
    INDEX 01 00:29:56
  TRACK 24 AUDIO
    TITLE "4:cjc115_1863"
    INDEX 01 00:29:64
  TRACK 25 AUDIO
    TITLE "0:"
    INDEX 01 00:32:64
  TRACK 26 AUDIO
    TITLE "2:cjc115_1864"
    INDEX 01 00:33:71
  TRACK 27 AUDIO
    TITLE "0:"
    INDEX 01 00:35:27
  TRACK 28 AUDIO
    TITLE "3:cjc115_1865"
    INDEX 01 00:35:33
  TRACK 29 AUDIO
    TITLE "0:"
    INDEX 01 00:39:17
  TRACK 30 AUDIO
    TITLE "4:cjc115_1866"
    INDEX 01 00:39:19
  TRACK 31 AUDIO
    TITLE "0:"
    INDEX 01 00:43:46
  TRACK 32 AUDIO
    TITLE "2:cjc115_1867"
    INDEX 01 00:44:56
  TRACK 33 AUDIO
    TITLE "0:"
    INDEX 01 00:46:11
  TRACK 34 AUDIO
    TITLE "3:cjc115_1868"
    INDEX 01 00:46:19
  TRACK 35 AUDIO
    TITLE "0:"
    INDEX 01 00:49:72
  TRACK 36 AUDIO
    TITLE "4:cjc115_1869"
    INDEX 01 00:50:07
  TRACK 37 AUDIO
    TITLE "0:"
    INDEX 01 00:55:12
  TRACK 38 AUDIO
    TITLE "2:cjc115_1870"
    INDEX 01 00:56:24
  TRACK 39 AUDIO
    TITLE "0:"
    INDEX 01 00:57:35
  TRACK 40 AUDIO
    TITLE "3:cjc115_1871"
    INDEX 01 00:57:45
  TRACK 41 AUDIO
    TITLE "0:"
    INDEX 01 00:58:54
  TRACK 42 AUDIO
    TITLE "4:cjc115_1872"
    INDEX 01 00:58:60
  TRACK 43 AUDIO
    TITLE "0:"
    INDEX 01 01:02:34
  TRACK 44 AUDIO
    TITLE "2:cjc115_1873"
    INDEX 01 01:03:41
  TRACK 45 AUDIO
    TITLE "0:"
    INDEX 01 01:05:05
  TRACK 46 AUDIO
    TITLE "3:cjc115_1874"
    INDEX 01 01:05:13
  TRACK 47 AUDIO
    TITLE "0:"
    INDEX 01 01:06:38
  TRACK 48 AUDIO
    TITLE "4:cjc115_1875"
    INDEX 01 01:06:49
  TRACK 49 AUDIO
    TITLE "0:"
    INDEX 01 01:10:39
  TRACK 50 AUDIO
    TITLE "2:cjc115_1876"
    INDEX 01 01:11:47
  TRACK 51 AUDIO
    TITLE "0:"
    INDEX 01 01:13:08
  TRACK 52 AUDIO
    TITLE "3:cjc115_1877"
    INDEX 01 01:13:18
  TRACK 53 AUDIO
    TITLE "0:"
    INDEX 01 01:14:72
  TRACK 54 AUDIO
    TITLE "4:cjc115_1878"
    INDEX 01 01:15:07
  TRACK 55 AUDIO
    TITLE "0:"
    INDEX 01 01:20:10
  TRACK 56 AUDIO
    TITLE "2:cjc115_1879"
    INDEX 01 01:21:18
  TRACK 57 AUDIO
    TITLE "0:"
    INDEX 01 01:22:31
  TRACK 58 AUDIO
    TITLE "3:cjc115_1880"
    INDEX 01 01:22:39
  TRACK 59 AUDIO
    TITLE "0:"
    INDEX 01 01:24:55
  TRACK 60 AUDIO
    TITLE "4:cjc115_1881"
    INDEX 01 01:24:65
  TRACK 61 AUDIO
    TITLE "0:"
    INDEX 01 01:28:41
  TRACK 62 AUDIO
    TITLE "2:cjc115_1882"
    INDEX 01 01:29:48
  TRACK 63 AUDIO
    TITLE "0:"
    INDEX 01 01:31:04
  TRACK 64 AUDIO
    TITLE "3:cjc115_1883"
    INDEX 01 01:31:08
  TRACK 65 AUDIO
    TITLE "0:"
    INDEX 01 01:33:58
  TRACK 66 AUDIO
    TITLE "4:cjc115_1884"
    INDEX 01 01:33:66
  TRACK 67 AUDIO
    TITLE "0:"
    INDEX 01 01:37:40
  TRACK 68 AUDIO
    TITLE "2:cjc115_1885"
    INDEX 01 01:38:49
  TRACK 69 AUDIO
    TITLE "0:"
    INDEX 01 01:39:72
  TRACK 70 AUDIO
    TITLE "3:cjc115_1886"
    INDEX 01 01:40:03
  TRACK 71 AUDIO
    TITLE "0:"
    INDEX 01 01:43:00
  TRACK 72 AUDIO
    TITLE "4:cjc115_1887"
    INDEX 01 01:43:09
  TRACK 73 AUDIO
    TITLE "0:"
    INDEX 01 01:47:50
